<?xml version="1.0" encoding="UTF-8"?>
<svg id="Layer_1" data-name="Layer 1" xmlns="http://www.w3.org/2000/svg" viewBox="0 0 29.38 19.5">
  <defs>
    <style>
      .cls-1 {
        fill: #b5c2cb;
        stroke-width: 0px;
      }
    </style>
  </defs>
  <path class="cls-1" d="M3.76,15.41c0-.27.12-.52.37-.74.24-.23.48-.39.72-.49l.35-.13c.25,0,.38.08.38.25s-.11.28-.33.33c-.45.1-.68.32-.68.66,0,.49.39.73,1.19.73,1.48,0,2.64-.28,3.47-.84.83-.57,1.25-1.23,1.25-1.98,0-.51-.24-.93-.72-1.27s-1.25-.52-2.31-.52c-2,0-3.66.47-4.98,1.43s-1.97,2-1.97,3.15c0,.86.43,1.57,1.29,2.15.86.57,2.07.86,3.64.86s3.04-.32,4.43-.97,2.9-1.68,4.53-3.09c-1.1-.67-1.64-1.57-1.64-2.68,0-.71.24-1.37.73-2-1.16-.37-2.12-1.07-2.87-2.11-.75-1.03-1.12-2.05-1.12-3.05s.31-1.8.93-2.4,1.57-.9,2.83-.9c1.68,0,3.18.75,4.5,2.26s1.99,3.39,2.02,5.64c1.16-1.23,2.95-3.13,5.35-5.71l3.11-3.33c.42-.42.68-.63.79-.63s.19.03.25.1c.06.07.09.17.09.32s-.09.28-.26.42c-.18.14-.78,1.02-1.8,2.64-1.02,1.63-2.3,3.68-3.84,6.16-1.54,2.48-2.78,4.44-3.73,5.87.94-.12,1.95-.41,3.03-.88.34-.15.54-.23.62-.23s.11.04.11.13c0,.17-.14.3-.4.38-1.04.49-2.24.8-3.58.93-1.43,2.16-2.27,3.23-2.5,3.23-.17,0-.25-.08-.25-.25s.17-.48.51-.93l.66-.96.33-1.06c-1.43-.05-2.59-.3-3.49-.76-1.8,1.58-3.43,2.71-4.9,3.39-1.47.67-3.04,1.01-4.72,1.01s-2.96-.31-3.84-.95c-.88-.63-1.31-1.43-1.31-2.39,0-1.31.71-2.53,2.13-3.64,1.42-1.11,3.23-1.67,5.42-1.67,2.54,0,3.81.72,3.81,2.15,0,.77-.38,1.44-1.12,2-.75.56-1.53.94-2.35,1.15s-1.54.32-2.16.32c-1.31,0-1.97-.35-1.97-1.06ZM14.85,14.47c1.31-1.16,2.77-2.57,4.37-4.22,0-1.26-.26-2.55-.78-3.86-.29-.76-.65-1.44-1.1-2.04-.45-.6-1.05-1.1-1.82-1.5-.77-.4-1.63-.61-2.59-.61-1.88,0-2.83,1.04-2.83,3.13,0,.93.34,1.84,1.02,2.75.68.91,1.58,1.5,2.69,1.77.74-.69,1.64-1.04,2.7-1.04.56,0,.83.15.83.45,0,.24-.21.49-.63.75-.42.26-.91.39-1.45.39s-1.03-.04-1.45-.13c-.35.44-.53.94-.53,1.51,0,1.03.52,1.9,1.57,2.63ZM16.22,9.3c-.86,0-1.54.23-2.05.68.34.03.6.05.78.05,1.03,0,1.54-.18,1.54-.53,0-.13-.09-.2-.28-.2ZM19.2,10.84c-1.75,1.77-3.08,3.06-3.99,3.86.86.47,1.9.74,3.13.81.51-1.87.79-3.43.86-4.67ZM18.62,15.86s0,.08-.02.1l.08-.1h-.05ZM27.21,2.4c-4.14,4.39-6.63,7.01-7.45,7.86-.05,1.04-.39,2.8-1.04,5.28h.18c.76-1.06,1.2-1.71,1.34-1.93.13-.23.78-1.25,1.94-3.07,3.42-5.35,5.13-8.05,5.13-8.08l-.1-.05Z"/>
</svg>